<?xml version="1.0" encoding="UTF-8"?>
<svg id="b" data-name="图层 2" xmlns="http://www.w3.org/2000/svg" width="1134" height="1134" viewBox="0 0 1134 1134">
  <g id="c" data-name="图层 1">
    <g>
      <circle cx="567" cy="567" r="567" style="fill: #fff;"/>
      <path d="m1038.68,571.57c0,260.68-225.32,467-486,467S94.68,832.25,94.68,571.57,292,94.57,552.68,94.57s486,216.32,486,477Z"/>
      <path d="m689.28,392.33v240.38c0,20.87-.89,38.6-2.66,53.21-1.78,14.61-5.79,29.42-12.05,44.44-10.44,25.25-27.65,44.91-51.64,59-24,14.08-53.21,21.13-87.64,21.13-31.09,0-57.02-4.9-77.78-14.71-20.77-9.81-37.51-25.67-50.23-47.57-6.68-11.68-12.1-25.14-16.28-40.38-4.18-15.23-6.26-29.73-6.26-43.5,0-14.6,4.07-25.77,12.21-33.49,8.14-7.72,18.57-11.58,31.3-11.58s21.6,3.55,27.86,10.64c6.26,7.1,11.06,18.15,14.4,33.18,3.55,16.07,7.09,28.9,10.64,38.5,3.55,9.6,9.49,17.84,17.84,24.73,8.34,6.89,20.24,10.33,35.68,10.33,41.1,0,61.66-30.15,61.66-90.45v-253.83c0-18.78,4.12-32.86,12.36-42.25,8.24-9.39,19.45-14.08,33.65-14.08s25.82,4.69,34.27,14.08c8.45,9.39,12.68,23.47,12.68,42.25Z" style="fill: #fff;"/>
    </g>
  </g>
</svg>