<svg width="800.0000000000001" height="600" xmlns="http://www.w3.org/2000/svg">
 <g>
  <title>Layer 1</title>
  <ellipse stroke-width="0" stroke="#000" fill="#ffffff" cx="400" cy="300" id="svg_1" rx="245.50001" ry="245.50001" filter="url(#svg_1_blur)"/>
  <g id="svg_2" stroke="null">
   <g id="svg_3" transform="translate(0 717) scale(0.1 -0.1)" fill="#000000" stroke="null">
    <path id="svg_4" d="m3830.10677,6172.23267c-604.22509,-53.21854 -1148.74159,-373.82777 -1493.36406,-878.75486c-395.89399,-580.86086 -453.65558,-1348.6356 -149.27151,-1987.90705c195.99998,-411.47015 540.62245,-755.44362 950.14558,-948.84757c297.894,-140.83442 583.45688,-201.19203 912.5032,-192.75494c314.76817,8.43709 561.39066,68.14569 833.97341,202.49004c295.94698,146.02647 528.94033,338.78142 722.99329,597.08602c207.68209,275.82778 329.69533,569.17874 385.50989,924.83433c11.68212,74.63575 13.62914,116.17217 13.62914,279.07281c0,166.14568 -1.94702,203.78806 -14.27814,285.56288c-53.86754,343.32446 -175.88077,643.16549 -369.93373,904.06612c-331.64234,447.81452 -810.60918,731.43038 -1360.96673,806.06613c-92.80794,12.98013 -334.88738,18.17218 -430.94035,9.08609l0.00001,0zm636.67542,-1723.76138c-0.64901,-432.23836 -4.54305,-741.16548 -8.43709,-774.26481c-22.06622,-185.61587 -87.61588,-308.92712 -205.73507,-386.8079c-170.68872,-113.57615 -478.96683,-115.52317 -643.81449,-4.54305c-125.25826,84.37085 -191.45693,222.60925 -204.43706,430.29134l-4.54305,68.79469l106.43707,14.27814c58.41059,7.78808 110.33111,14.27814 116.17217,14.27814c7.78808,0 11.68212,-13.62914 17.52318,-67.49668c14.92715,-123.31124 44.78145,-203.78806 93.45694,-247.27149c117.47018,-106.43707 339.43042,-83.07284 425.74829,44.78145c25.31126,38.29139 37.64238,79.82781 46.72847,156.41058c3.89404,35.69536 6.49007,330.99334 6.49007,764.52971l0,705.47012l128.5033,0l128.5033,0l-2.59603,-718.45025l0,0.00001z" stroke="null"/>
   </g>
  </g>
 </g>
 <defs>
  <filter id="svg_1_blur">
   <feGaussianBlur in="SourceGraphic" stdDeviation="0"/>
  </filter>
 </defs>
</svg>