<?xml version="1.0" standalone="no"?>
<!DOCTYPE svg PUBLIC "-//W3C//DTD SVG 20010904//EN"
 "http://www.w3.org/TR/2001/REC-SVG-20010904/DTD/svg10.dtd">
<svg version="1.0" xmlns="http://www.w3.org/2000/svg"
 width="620.000000pt" height="620.000000pt" viewBox="0 0 620.000000 620.000000"
 preserveAspectRatio="xMidYMid meet">

<g transform="translate(0.000000,620.000000) scale(0.100000,-0.100000)"
fill="#000000" stroke="none">
<path d="M2831 6189 c-931 -82 -1770 -576 -2301 -1354 -610 -895 -699 -2078
-230 -3063 302 -634 833 -1164 1464 -1462 459 -217 899 -310 1406 -297 485 13
865 105 1285 312 456 225 815 522 1114 920 320 425 508 877 594 1425 18 115
21 179 21 430 0 256 -3 314 -22 440 -83 529 -271 991 -570 1393 -511 690
-1249 1127 -2097 1242 -143 20 -516 28 -664 14z m981 -2656 c-1 -666 -7 -1142
-13 -1193 -34 -286 -135 -476 -317 -596 -263 -175 -738 -178 -992 -7 -193 130
-295 343 -315 663 l-7 106 164 22 c90 12 170 22 179 22 12 0 18 -21 27 -104
23 -190 69 -314 144 -381 181 -164 523 -128 656 69 39 59 58 123 72 241 6 55
10 510 10 1178 l0 1087 198 0 198 0 -4 -1107z"/>
</g>
</svg>
